<svg width="41" height="41" viewBox="0 0 41 41" fill="none" xmlns="http://www.w3.org/2000/svg">
<g clip-path="url(#clip0_95_27)">
<path fill-rule="evenodd" clip-rule="evenodd" d="M26.7544 26.7581C26.9924 26.5199 27.275 26.3309 27.5861 26.2019C27.8972 26.073 28.2306 26.0066 28.5674 26.0066C28.9041 26.0066 29.2376 26.073 29.5487 26.2019C29.8598 26.3309 30.1424 26.5199 30.3804 26.7581L40.246 36.6238C40.7268 37.1043 40.9971 37.7561 40.9973 38.4358C40.9976 39.1156 40.7277 39.7676 40.2473 40.2484C39.7668 40.7292 39.115 40.9995 38.4352 40.9998C37.7554 41 37.1034 40.7302 36.6226 40.2497L26.757 30.3841C26.5187 30.1461 26.3297 29.8635 26.2008 29.5524C26.0718 29.2413 26.0054 28.9079 26.0054 28.5711C26.0054 28.2344 26.0718 27.9009 26.2008 27.5898C26.3297 27.2787 26.5187 26.9961 26.757 26.7581H26.7544Z" fill="white"/>
<path fill-rule="evenodd" clip-rule="evenodd" d="M16.6562 30.75C18.507 30.75 20.3397 30.3855 22.0496 29.6772C23.7596 28.9689 25.3132 27.9308 26.622 26.622C27.9307 25.3133 28.9688 23.7596 29.6771 22.0497C30.3854 20.3398 30.7499 18.5071 30.7499 16.6562C30.7499 14.8054 30.3854 12.9727 29.6771 11.2628C28.9688 9.55287 27.9307 7.99919 26.622 6.69046C25.3132 5.38174 23.7596 4.3436 22.0496 3.63532C20.3397 2.92705 18.507 2.5625 16.6562 2.5625C12.9183 2.5625 9.33349 4.04737 6.6904 6.69046C4.04731 9.33355 2.56244 12.9184 2.56244 16.6562C2.56244 20.3941 4.04731 23.9789 6.6904 26.622C9.33349 29.2651 12.9183 30.75 16.6562 30.75ZM33.3124 16.6562C33.3124 21.0738 31.5576 25.3103 28.4339 28.434C25.3103 31.5576 21.0737 33.3125 16.6562 33.3125C12.2387 33.3125 8.00209 31.5576 4.87844 28.434C1.75479 25.3103 -6.10352e-05 21.0738 -6.10352e-05 16.6562C-6.10352e-05 12.2387 1.75479 8.00216 4.87844 4.8785C8.00209 1.75485 12.2387 0 16.6562 0C21.0737 0 25.3103 1.75485 28.4339 4.8785C31.5576 8.00216 33.3124 12.2387 33.3124 16.6562Z" fill="white"/>
</g>
<defs>
<clipPath id="clip0_95_27">
<rect width="41" height="41" fill="white"/>
</clipPath>
</defs>
</svg>
