<svg width="68" height="68" viewBox="0 0 68 68" fill="none" xmlns="http://www.w3.org/2000/svg">
<path fill-rule="evenodd" clip-rule="evenodd" d="M-6.10352e-05 6.375C-6.10352e-05 5.81142 0.223822 5.27091 0.622338 4.8724C1.02085 4.47388 1.56136 4.25 2.12494 4.25H8.49995C8.97395 4.25013 9.43431 4.40874 9.80781 4.70061C10.1813 4.99247 10.4465 5.40083 10.5612 5.86075L12.2825 12.75H61.625C61.937 12.7503 62.2451 12.8193 62.5275 12.9521C62.8098 13.0849 63.0595 13.2783 63.2587 13.5184C63.4579 13.7586 63.6017 14.0397 63.68 14.3417C63.7583 14.6437 63.7692 14.9593 63.7117 15.266L57.3367 49.266C57.2456 49.753 56.9872 50.1928 56.6061 50.5094C56.2251 50.826 55.7454 50.9996 55.25 51H17C16.5045 50.9996 16.0249 50.826 15.6438 50.5094C15.2628 50.1928 15.0044 49.753 14.9132 49.266L8.54245 15.3298L6.84245 8.5H2.12494C1.56136 8.5 1.02085 8.27612 0.622338 7.87761C0.223822 7.47909 -6.10352e-05 6.93859 -6.10352e-05 6.375ZM13.1835 17L18.7637 46.75H53.4862L59.0665 17H13.1835ZM21.25 51C18.9956 51 16.8336 51.8956 15.2395 53.4896C13.6455 55.0837 12.75 57.2457 12.75 59.5C12.75 61.7544 13.6455 63.9164 15.2395 65.5105C16.8336 67.1045 18.9956 68.0001 21.25 68.0001C23.5043 68.0001 25.6663 67.1045 27.2604 65.5105C28.8544 63.9164 29.75 61.7544 29.75 59.5C29.75 57.2457 28.8544 55.0837 27.2604 53.4896C25.6663 51.8956 23.5043 51 21.25 51ZM51 51C48.7456 51 46.5836 51.8956 44.9896 53.4896C43.3955 55.0837 42.5 57.2457 42.5 59.5C42.5 61.7544 43.3955 63.9164 44.9896 65.5105C46.5836 67.1045 48.7456 68.0001 51 68.0001C53.2543 68.0001 55.4163 67.1045 57.0104 65.5105C58.6045 63.9164 59.5 61.7544 59.5 59.5C59.5 57.2457 58.6045 55.0837 57.0104 53.4896C55.4163 51.8956 53.2543 51 51 51ZM21.25 55.25C20.1228 55.25 19.0418 55.6978 18.2448 56.4948C17.4477 57.2919 17 58.3729 17 59.5C17 60.6272 17.4477 61.7082 18.2448 62.5053C19.0418 63.3023 20.1228 63.7501 21.25 63.7501C22.3771 63.7501 23.4581 63.3023 24.2552 62.5053C25.0522 61.7082 25.5 60.6272 25.5 59.5C25.5 58.3729 25.0522 57.2919 24.2552 56.4948C23.4581 55.6978 22.3771 55.25 21.25 55.25ZM51 55.25C49.8728 55.25 48.7918 55.6978 47.9948 56.4948C47.1978 57.2919 46.75 58.3729 46.75 59.5C46.75 60.6272 47.1978 61.7082 47.9948 62.5053C48.7918 63.3023 49.8728 63.7501 51 63.7501C52.1272 63.7501 53.2082 63.3023 54.0052 62.5053C54.8022 61.7082 55.25 60.6272 55.25 59.5C55.25 58.3729 54.8022 57.2919 54.0052 56.4948C53.2082 55.6978 52.1272 55.25 51 55.25Z" fill="black"/>
</svg>
