<svg width="66" height="66" viewBox="0 0 66 66" fill="none" xmlns="http://www.w3.org/2000/svg">
<g clip-path="url(#clip0_95_31)">
<path fill-rule="evenodd" clip-rule="evenodd" d="M33.0072 11.3328L30.0496 8.29271C23.1072 1.15646 10.3774 3.61908 5.7822 12.591C3.62482 16.8108 3.13807 22.9035 7.07745 30.6791C10.8724 38.166 18.7677 47.1337 33.0072 56.9017C47.2467 47.1337 55.1378 38.166 58.9369 30.6791C62.8763 22.8993 62.3937 16.8108 60.2322 12.591C55.6369 3.61908 42.9072 1.15233 35.9648 8.28858L33.0072 11.3328ZM33.0072 61.8723C-30.2414 20.0778 13.5331 -12.5427 32.2812 4.71221C32.5287 4.93908 32.7721 5.17421 33.0072 5.41758C33.2399 5.17443 33.4821 4.9405 33.7332 4.71633C52.4772 -12.5509 96.2558 20.0737 33.0072 61.8723Z" fill="black"/>
</g>
<defs>
<clipPath id="clip0_95_31">
<rect width="66" height="66" fill="white"/>
</clipPath>
</defs>
</svg>
