<svg width="72" height="72" viewBox="0 0 72 72" fill="none" xmlns="http://www.w3.org/2000/svg">
<g clip-path="url(#clip0_95_21)">
<path d="M60.6028 55.665C57.4078 50.517 50.3743 45 35.9968 45C21.6193 45 14.5903 50.5125 11.3907 55.665C14.3386 59.3606 18.0819 62.3439 22.342 64.393C26.6021 66.442 31.2695 67.504 35.9968 67.5C40.7241 67.504 45.3914 66.442 49.6515 64.393C53.9117 62.3439 57.6549 59.3606 60.6028 55.665Z" fill="black"/>
<path fill-rule="evenodd" clip-rule="evenodd" d="M36 40.5C39.5804 40.5 43.0142 39.0777 45.5459 36.546C48.0776 34.0142 49.5 30.5804 49.5 27C49.5 23.4196 48.0776 19.9858 45.5459 17.4541C43.0142 14.9223 39.5804 13.5 36 13.5C32.4195 13.5 28.9857 14.9223 26.454 17.4541C23.9223 19.9858 22.4999 23.4196 22.4999 27C22.4999 30.5804 23.9223 34.0142 26.454 36.546C28.9857 39.0777 32.4195 40.5 36 40.5Z" fill="black"/>
<path fill-rule="evenodd" clip-rule="evenodd" d="M36 4.5C27.6456 4.5 19.6335 7.81875 13.7261 13.7261C7.81869 19.6335 4.49994 27.6457 4.49994 36C4.49994 44.3544 7.81869 52.3665 13.7261 58.2739C19.6335 64.1813 27.6456 67.5001 36 67.5001C44.3543 67.5001 52.3665 64.1813 58.2738 58.2739C64.1813 52.3665 67.5 44.3544 67.5 36C67.5 27.6457 64.1813 19.6335 58.2738 13.7261C52.3665 7.81875 44.3543 4.5 36 4.5ZM-6.10352e-05 36C-6.10352e-05 26.4522 3.79279 17.2955 10.5441 10.5442C17.2954 3.79285 26.4522 0 36 0C45.5478 0 54.7045 3.79285 61.4558 10.5442C68.2072 17.2955 72 26.4522 72 36C72 45.5478 68.2072 54.7046 61.4558 61.4559C54.7045 68.2072 45.5478 72.0001 36 72.0001C26.4522 72.0001 17.2954 68.2072 10.5441 61.4559C3.79279 54.7046 -6.10352e-05 45.5478 -6.10352e-05 36Z" fill="black"/>
</g>
<defs>
<clipPath id="clip0_95_21">
<rect width="72.0001" height="72.0001" fill="white"/>
</clipPath>
</defs>
</svg>
